<svg width="128" height="128" viewBox="0 0 128 128" fill="none" xmlns="http://www.w3.org/2000/svg" role="img" aria-labelledby="title desc">
  <title id="title">Manajemen Risiko App - Pusdiklat BPS</title>
  <desc id="desc">Logo aplikasi manajemen risiko untuk Pusdiklat Badan Pusat Statistik</desc>
  <rect width="128" height="128" rx="28" fill="#F8FAFC"/>
  <rect x="8" y="8" width="112" height="112" rx="24" fill="white" stroke="#E2E8F0" stroke-width="4"/>
  <path d="M64 22L96 34V58C96 80.8 82.4 98.6 64 106C45.6 98.6 32 80.8 32 58V34L64 22Z" fill="#00529B"/>
  <path d="M64 30L88 39V58.5C88 75.8 78.3 89.7 64 97C49.7 89.7 40 75.8 40 58.5V39L64 30Z" fill="#0EA5E9"/>
  <path d="M48 76L58 64L68 70L82 50" stroke="white" stroke-width="8" stroke-linecap="round" stroke-linejoin="round"/>
  <circle cx="48" cy="76" r="5" fill="#F59E0B"/>
  <circle cx="58" cy="64" r="5" fill="#22C55E"/>
  <circle cx="68" cy="70" r="5" fill="#F59E0B"/>
  <circle cx="82" cy="50" r="5" fill="#22C55E"/>
  <path d="M21 88C29 104 45.4 115 64.5 115C83.1 115 99.1 104.6 107.3 89.3" stroke="#F59E0B" stroke-width="6" stroke-linecap="round"/>
  <path d="M22 40C30.4 24.4 46.8 14 65.5 14C83.6 14 99.5 23.8 108.1 38.4" stroke="#22C55E" stroke-width="6" stroke-linecap="round"/>
  <text x="64" y="122" text-anchor="middle" font-family="Arial, Helvetica, sans-serif" font-size="10" font-weight="700" fill="#00529B">PUSDIKLAT BPS</text>
</svg>
